#N canvas 0 0 900 1700 12;
#X obj 10 10 inlet~;
#X obj 10 40 inlet;
#X obj 10 70 inlet;
#X obj 10 100 inlet;
#X obj 10 130 inlet;
#X obj 10 160 inlet;
#X obj 10 190 inlet;
#X obj 10 220 inlet;
#X obj 10 250 inlet;
#X obj 10 280 inlet;
#X obj 150 40 f 0;
#X obj 150 60 * 4;
#X obj 150 80 + 1;
#X obj 150 100 sig~;
#X obj 150 120 *~;
#X obj 150 140 clip~ -1 1;
#X obj 150 160 *~ 0.9;
#X obj 310 40 f 1;
#X obj 310 60 osc~;
#X obj 310 80 *~ 10;
#X obj 310 100 +~ 22;
#X obj 440 40 f 1;
#X obj 440 60 * 1.07;
#X obj 440 80 f 0;
#X obj 440 100 osc~;
#X obj 440 120 *~ 10;
#X obj 440 140 +~ 27;
#X obj 310 170 delwrite~ fxchoL 100;
#X obj 440 170 delwrite~ fxchoR 100;
#X obj 310 200 vd~ fxchoL;
#X obj 440 200 vd~ fxchoR;
#X obj 570 40 f 0;
#X obj 570 60 sig~;
#X obj 690 40 f 0;
#X obj 690 60 * 0.5;
#X obj 690 80 * -1;
#X obj 690 100 + 1;
#X obj 690 120 sig~;
#X obj 310 230 *~;
#X obj 440 230 *~;
#X obj 310 260 *~;
#X obj 440 260 *~;
#X obj 310 290 +~;
#X obj 440 290 +~;
#X obj 310 330 delwrite~ fxdlyL 2000;
#X obj 440 330 delwrite~ fxdlyR 2000;
#X obj 310 360 delread~ fxdlyL 250;
#X obj 440 360 delread~ fxdlyR 250;
#X obj 570 100 f 0.25;
#X obj 570 120 * 1000;
#X obj 570 140 f 250;
#X obj 690 160 f 0;
#X obj 690 180 sig~;
#X obj 310 380 *~;
#X obj 440 380 *~;
#X obj 310 400 +~;
#X obj 440 400 +~;
#X obj 570 160 f 0;
#X obj 570 180 * 0.5;
#X obj 570 200 * -1;
#X obj 570 220 + 1;
#X obj 570 240 sig~;
#X obj 690 220 f 0;
#X obj 690 240 sig~;
#X obj 310 420 *~;
#X obj 440 420 *~;
#X obj 310 450 *~;
#X obj 440 450 *~;
#X obj 310 480 +~;
#X obj 440 480 +~;
#X obj 100 530 f 0;
#X obj 100 550 * 0.84;
#X obj 100 570 sig~;
#X obj 210 490 delwrite~ fxrv1 100;
#X obj 210 510 delread~ fxrv1 30;
#X obj 210 530 *~;
#X obj 210 550 +~;
#X obj 330 490 delwrite~ fxrv2 100;
#X obj 330 510 delread~ fxrv2 38;
#X obj 330 530 *~;
#X obj 330 550 +~;
#X obj 450 490 delwrite~ fxrv3 100;
#X obj 450 510 delread~ fxrv3 42;
#X obj 450 530 *~;
#X obj 450 550 +~;
#X obj 570 490 delwrite~ fxrv4 100;
#X obj 570 510 delread~ fxrv4 44;
#X obj 570 530 *~;
#X obj 570 550 +~;
#X obj 380 590 +~;
#X obj 380 610 +~;
#X obj 380 630 +~;
#X obj 380 650 *~ 0.25;
#X obj 380 690 delwrite~ fxap1 20;
#X obj 380 710 delread~ fxap1 5;
#X obj 380 730 *~ 0.7;
#X obj 380 750 +~;
#X obj 380 770 *~ -0.7;
#X obj 380 790 +~;
#X obj 380 830 delwrite~ fxap2 10;
#X obj 380 850 delread~ fxap2 2;
#X obj 380 870 *~ 0.7;
#X obj 380 890 +~;
#X obj 380 910 *~ -0.7;
#X obj 380 930 +~;
#X obj 570 290 f 0;
#X obj 570 310 sig~;
#X obj 690 290 f 0;
#X obj 690 310 * 0.4;
#X obj 690 330 * -1;
#X obj 690 350 + 1;
#X obj 690 370 sig~;
#X obj 310 970 *~;
#X obj 440 970 *~;
#X obj 310 1000 *~;
#X obj 440 1000 *~;
#X obj 310 1030 +~;
#X obj 440 1030 +~;
#X obj 310 1060 outlet~;
#X obj 440 1060 outlet~;
#X connect 1 0 10 0;
#X connect 10 0 11 0;
#X connect 11 0 12 0;
#X connect 12 0 13 0;
#X connect 0 0 14 0;
#X connect 13 0 14 1;
#X connect 14 0 15 0;
#X connect 15 0 16 0;
#X connect 2 0 17 0;
#X connect 17 0 18 0;
#X connect 3 0 19 1;
#X connect 18 0 19 0;
#X connect 19 0 20 0;
#X connect 20 0 29 0;
#X connect 2 0 21 0;
#X connect 21 0 22 0;
#X connect 22 0 23 0;
#X connect 23 0 24 0;
#X connect 3 0 25 1;
#X connect 24 0 25 0;
#X connect 25 0 26 0;
#X connect 26 0 30 0;
#X connect 16 0 27 0;
#X connect 16 0 28 0;
#X connect 4 0 31 0;
#X connect 31 0 32 0;
#X connect 4 0 33 0;
#X connect 33 0 34 0;
#X connect 34 0 35 0;
#X connect 35 0 36 0;
#X connect 36 0 37 0;
#X connect 29 0 38 0;
#X connect 32 0 38 1;
#X connect 30 0 39 0;
#X connect 32 0 39 1;
#X connect 16 0 40 0;
#X connect 37 0 40 1;
#X connect 16 0 41 0;
#X connect 37 0 41 1;
#X connect 38 0 42 0;
#X connect 40 0 42 1;
#X connect 39 0 43 0;
#X connect 41 0 43 1;
#X connect 5 0 48 0;
#X connect 48 0 49 0;
#X connect 49 0 50 0;
#X connect 50 0 46 1;
#X connect 50 0 47 1;
#X connect 6 0 51 0;
#X connect 51 0 52 0;
#X connect 46 0 53 0;
#X connect 52 0 53 1;
#X connect 47 0 54 0;
#X connect 52 0 54 1;
#X connect 42 0 55 0;
#X connect 53 0 55 1;
#X connect 43 0 56 0;
#X connect 54 0 56 1;
#X connect 55 0 44 0;
#X connect 56 0 45 0;
#X connect 7 0 57 0;
#X connect 57 0 58 0;
#X connect 58 0 59 0;
#X connect 59 0 60 0;
#X connect 60 0 61 0;
#X connect 7 0 62 0;
#X connect 62 0 63 0;
#X connect 46 0 64 0;
#X connect 63 0 64 1;
#X connect 47 0 65 0;
#X connect 63 0 65 1;
#X connect 42 0 66 0;
#X connect 61 0 66 1;
#X connect 43 0 67 0;
#X connect 61 0 67 1;
#X connect 64 0 68 0;
#X connect 66 0 68 1;
#X connect 65 0 69 0;
#X connect 67 0 69 1;
#X connect 8 0 72 0;
#X connect 72 0 73 0;
#X connect 73 0 74 0;
#X connect 68 0 78 0;
#X connect 76 0 77 0;
#X connect 74 0 77 1;
#X connect 77 0 78 1;
#X connect 78 0 75 0;
#X connect 68 0 82 0;
#X connect 80 0 81 0;
#X connect 74 0 81 1;
#X connect 81 0 82 1;
#X connect 82 0 79 0;
#X connect 68 0 86 0;
#X connect 84 0 85 0;
#X connect 74 0 85 1;
#X connect 85 0 86 1;
#X connect 86 0 83 0;
#X connect 68 0 90 0;
#X connect 88 0 89 0;
#X connect 74 0 89 1;
#X connect 89 0 90 1;
#X connect 90 0 87 0;
#X connect 78 0 91 0;
#X connect 82 0 91 1;
#X connect 86 0 92 0;
#X connect 90 0 92 1;
#X connect 91 0 93 0;
#X connect 92 0 93 1;
#X connect 93 0 94 0;
#X connect 94 0 96 0;
#X connect 96 0 95 0;
#X connect 94 0 97 0;
#X connect 96 0 97 1;
#X connect 97 0 95 0;
#X connect 94 0 98 1;
#X connect 97 0 98 0;
#X connect 98 0 100 0;
#X connect 100 0 99 0;
#X connect 98 0 101 0;
#X connect 100 0 101 1;
#X connect 101 0 99 0;
#X connect 98 0 102 1;
#X connect 101 0 102 0;
#X connect 102 0 104 0;
#X connect 9 0 105 0;
#X connect 105 0 106 0;
#X connect 9 0 107 0;
#X connect 107 0 108 0;
#X connect 108 0 109 0;
#X connect 109 0 110 0;
#X connect 110 0 111 0;
#X connect 102 0 112 0;
#X connect 106 0 112 1;
#X connect 102 0 113 0;
#X connect 106 0 113 1;
#X connect 68 0 114 0;
#X connect 111 0 114 1;
#X connect 69 0 115 0;
#X connect 111 0 115 1;
#X connect 112 0 116 0;
#X connect 114 0 116 1;
#X connect 113 0 117 0;
#X connect 115 0 117 1;
#X connect 116 0 118 0;
#X connect 117 0 119 0;