#N canvas 0 0 1400 750 12;
#X obj 30 30 inlet;
#X obj 130 30 inlet;
#X obj 230 30 inlet;
#X obj 330 30 inlet;
#X obj 430 30 inlet;
#X text 30 18 clock;
#X text 130 18 reset;
#X text 230 18 length;
#X text 330 18 swing%;
#X text 430 18 euclid;
#X obj 30 80 tgl 20 0 empty empty empty 20 8 0 10 -4 -4 -262144 0 0;
#X floatatom 30 110 4 0 127 - 20 8;
#X floatatom 30 140 4 0 100 - 20 8;
#X text 35 170 1;
#X obj 110 80 tgl 20 0 empty empty empty 20 8 0 10 -4 -4 -262144 0 0;
#X floatatom 110 110 4 0 127 - 20 8;
#X floatatom 110 140 4 0 100 - 20 8;
#X text 115 170 2;
#X obj 190 80 tgl 20 0 empty empty empty 20 8 0 10 -4 -4 -262144 0 0;
#X floatatom 190 110 4 0 127 - 20 8;
#X floatatom 190 140 4 0 100 - 20 8;
#X text 195 170 3;
#X obj 270 80 tgl 20 0 empty empty empty 20 8 0 10 -4 -4 -262144 0 0;
#X floatatom 270 110 4 0 127 - 20 8;
#X floatatom 270 140 4 0 100 - 20 8;
#X text 275 170 4;
#X obj 350 80 tgl 20 0 empty empty empty 20 8 0 10 -4 -4 -262144 0 0;
#X floatatom 350 110 4 0 127 - 20 8;
#X floatatom 350 140 4 0 100 - 20 8;
#X text 355 170 5;
#X obj 430 80 tgl 20 0 empty empty empty 20 8 0 10 -4 -4 -262144 0 0;
#X floatatom 430 110 4 0 127 - 20 8;
#X floatatom 430 140 4 0 100 - 20 8;
#X text 435 170 6;
#X obj 510 80 tgl 20 0 empty empty empty 20 8 0 10 -4 -4 -262144 0 0;
#X floatatom 510 110 4 0 127 - 20 8;
#X floatatom 510 140 4 0 100 - 20 8;
#X text 515 170 7;
#X obj 590 80 tgl 20 0 empty empty empty 20 8 0 10 -4 -4 -262144 0 0;
#X floatatom 590 110 4 0 127 - 20 8;
#X floatatom 590 140 4 0 100 - 20 8;
#X text 595 170 8;
#X obj 670 80 tgl 20 0 empty empty empty 20 8 0 10 -4 -4 -262144 0 0;
#X floatatom 670 110 4 0 127 - 20 8;
#X floatatom 670 140 4 0 100 - 20 8;
#X text 675 170 9;
#X obj 750 80 tgl 20 0 empty empty empty 20 8 0 10 -4 -4 -262144 0 0;
#X floatatom 750 110 4 0 127 - 20 8;
#X floatatom 750 140 4 0 100 - 20 8;
#X text 755 170 10;
#X obj 830 80 tgl 20 0 empty empty empty 20 8 0 10 -4 -4 -262144 0 0;
#X floatatom 830 110 4 0 127 - 20 8;
#X floatatom 830 140 4 0 100 - 20 8;
#X text 835 170 11;
#X obj 910 80 tgl 20 0 empty empty empty 20 8 0 10 -4 -4 -262144 0 0;
#X floatatom 910 110 4 0 127 - 20 8;
#X floatatom 910 140 4 0 100 - 20 8;
#X text 915 170 12;
#X obj 990 80 tgl 20 0 empty empty empty 20 8 0 10 -4 -4 -262144 0 0;
#X floatatom 990 110 4 0 127 - 20 8;
#X floatatom 990 140 4 0 100 - 20 8;
#X text 995 170 13;
#X obj 1070 80 tgl 20 0 empty empty empty 20 8 0 10 -4 -4 -262144 0 0;
#X floatatom 1070 110 4 0 127 - 20 8;
#X floatatom 1070 140 4 0 100 - 20 8;
#X text 1075 170 14;
#X obj 1150 80 tgl 20 0 empty empty empty 20 8 0 10 -4 -4 -262144 0 0;
#X floatatom 1150 110 4 0 127 - 20 8;
#X floatatom 1150 140 4 0 100 - 20 8;
#X text 1155 170 15;
#X obj 1230 80 tgl 20 0 empty empty empty 20 8 0 10 -4 -4 -262144 0 0;
#X floatatom 1230 110 4 0 127 - 20 8;
#X floatatom 1230 140 4 0 100 - 20 8;
#X text 1235 170 16;
#X obj 30 55 t b b;
#X obj 200 70 timer;
#X obj 200 95 f 500;
#X obj 330 55 f 0;
#X obj 230 55 f 8;
#X msg 130 55 0;
#X msg 130 70 0;
#X obj 30 95 f 0;
#X obj 30 115 + 1;
#X obj 30 135 >= 1;
#X obj 30 155 sel 1;
#X obj 30 175 t b b;
#X obj 80 175 f 0;
#X obj 80 195 + 1;
#X obj 80 215 mod 16;
#X obj 80 240 select 0 1 2 3 4 5 6 7 8 9 10 11 12 13 14 15;
#X obj 30 195 spigot;
#X obj 110 195 spigot;
#X obj 190 195 spigot;
#X obj 270 195 spigot;
#X obj 350 195 spigot;
#X obj 430 195 spigot;
#X obj 510 195 spigot;
#X obj 590 195 spigot;
#X obj 670 195 spigot;
#X obj 750 195 spigot;
#X obj 830 195 spigot;
#X obj 910 195 spigot;
#X obj 990 195 spigot;
#X obj 1070 195 spigot;
#X obj 1150 195 spigot;
#X obj 1230 195 spigot;
#X obj 30 235 f 60;
#X obj 30 255 f 100;
#X obj 110 235 f 60;
#X obj 110 255 f 100;
#X obj 190 235 f 60;
#X obj 190 255 f 100;
#X obj 270 235 f 60;
#X obj 270 255 f 100;
#X obj 350 235 f 60;
#X obj 350 255 f 100;
#X obj 430 235 f 60;
#X obj 430 255 f 100;
#X obj 510 235 f 60;
#X obj 510 255 f 100;
#X obj 590 235 f 60;
#X obj 590 255 f 100;
#X obj 670 235 f 60;
#X obj 670 255 f 100;
#X obj 750 235 f 60;
#X obj 750 255 f 100;
#X obj 830 235 f 60;
#X obj 830 255 f 100;
#X obj 910 235 f 60;
#X obj 910 255 f 100;
#X obj 990 235 f 60;
#X obj 990 255 f 100;
#X obj 1070 235 f 60;
#X obj 1070 255 f 100;
#X obj 1150 235 f 60;
#X obj 1150 255 f 100;
#X obj 1230 235 f 60;
#X obj 1230 255 f 100;
#X obj 30 215 t b b;
#X obj 110 215 t b b;
#X obj 190 215 t b b;
#X obj 270 215 t b b;
#X obj 350 215 t b b;
#X obj 430 215 t b b;
#X obj 510 215 t b b;
#X obj 590 215 t b b;
#X obj 670 215 t b b;
#X obj 750 215 t b b;
#X obj 830 215 t b b;
#X obj 910 215 t b b;
#X obj 990 215 t b b;
#X obj 1070 215 t b b;
#X obj 1150 215 t b b;
#X obj 1230 215 t b b;
#X obj 1340 275 f 100;
#X obj 1340 300 random 100;
#X obj 1340 325 < 100;
#X obj 1340 350 sel 1;
#X obj 1340 375 f 0;
#X obj 1420 375 f 0;
#X obj 1420 400 f 0;
#X obj 1340 400 select 0 1 2 3 4 5 6 7 8 9 10 11 12 13 14 15;
#X obj 1340 460 mtof;
#X obj 1340 425 t b b;
#X obj 1380 490 t b b;
#X obj 1380 525 del 0;
#X obj 1420 440 % 2;
#X obj 1420 490 *;
#X obj 1500 440 f 500;
#X obj 1540 440 f 0;
#X obj 1500 415 t b b;
#X obj 1420 465 expr $f1 * $f2 / 100;
#X obj 1340 570 outlet;
#X obj 1400 570 outlet;
#X obj 1460 570 outlet;
#X obj 430 55 > 0;
#X obj 430 70 sel 1;
#X obj 430 90 f 0;
#X obj 30 200 expr (floor((1)*$f1/$f2) > floor((0)*$f1/$f2));
#X obj 110 200 expr (floor((2)*$f1/$f2) > floor((1)*$f1/$f2));
#X obj 190 200 expr (floor((3)*$f1/$f2) > floor((2)*$f1/$f2));
#X obj 270 200 expr (floor((4)*$f1/$f2) > floor((3)*$f1/$f2));
#X obj 350 200 expr (floor((5)*$f1/$f2) > floor((4)*$f1/$f2));
#X obj 430 200 expr (floor((6)*$f1/$f2) > floor((5)*$f1/$f2));
#X obj 510 200 expr (floor((7)*$f1/$f2) > floor((6)*$f1/$f2));
#X obj 590 200 expr (floor((8)*$f1/$f2) > floor((7)*$f1/$f2));
#X obj 670 200 expr (floor((9)*$f1/$f2) > floor((8)*$f1/$f2));
#X obj 750 200 expr (floor((10)*$f1/$f2) > floor((9)*$f1/$f2));
#X obj 830 200 expr (floor((11)*$f1/$f2) > floor((10)*$f1/$f2));
#X obj 910 200 expr (floor((12)*$f1/$f2) > floor((11)*$f1/$f2));
#X obj 990 200 expr (floor((13)*$f1/$f2) > floor((12)*$f1/$f2));
#X obj 1070 200 expr (floor((14)*$f1/$f2) > floor((13)*$f1/$f2));
#X obj 1150 200 expr (floor((15)*$f1/$f2) > floor((14)*$f1/$f2));
#X obj 1230 200 expr (floor((16)*$f1/$f2) > floor((15)*$f1/$f2));
#X connect 0 0 74 0;
#X connect 74 1 75 0;
#X connect 75 0 76 1;
#X connect 3 0 77 0;
#X connect 2 0 78 0;
#X connect 1 0 79 0;
#X connect 1 0 80 0;
#X connect 78 0 83 1;
#X connect 74 0 81 0;
#X connect 81 0 82 0;
#X connect 82 0 81 0;
#X connect 82 0 83 0;
#X connect 83 0 84 0;
#X connect 84 0 85 0;
#X connect 85 1 79 0;
#X connect 79 0 81 1;
#X connect 78 0 88 1;
#X connect 85 0 86 0;
#X connect 86 0 87 0;
#X connect 87 0 88 0;
#X connect 88 0 86 0;
#X connect 80 0 86 1;
#X connect 88 0 89 0;
#X connect 89 0 90 0;
#X connect 10 0 90 1;
#X connect 89 1 91 0;
#X connect 14 0 91 1;
#X connect 89 2 92 0;
#X connect 18 0 92 1;
#X connect 89 3 93 0;
#X connect 22 0 93 1;
#X connect 89 4 94 0;
#X connect 26 0 94 1;
#X connect 89 5 95 0;
#X connect 30 0 95 1;
#X connect 89 6 96 0;
#X connect 34 0 96 1;
#X connect 89 7 97 0;
#X connect 38 0 97 1;
#X connect 89 8 98 0;
#X connect 42 0 98 1;
#X connect 89 9 99 0;
#X connect 46 0 99 1;
#X connect 89 10 100 0;
#X connect 50 0 100 1;
#X connect 89 11 101 0;
#X connect 54 0 101 1;
#X connect 89 12 102 0;
#X connect 58 0 102 1;
#X connect 89 13 103 0;
#X connect 62 0 103 1;
#X connect 89 14 104 0;
#X connect 66 0 104 1;
#X connect 89 15 105 0;
#X connect 70 0 105 1;
#X connect 11 0 106 1;
#X connect 12 0 107 1;
#X connect 15 0 108 1;
#X connect 16 0 109 1;
#X connect 19 0 110 1;
#X connect 20 0 111 1;
#X connect 23 0 112 1;
#X connect 24 0 113 1;
#X connect 27 0 114 1;
#X connect 28 0 115 1;
#X connect 31 0 116 1;
#X connect 32 0 117 1;
#X connect 35 0 118 1;
#X connect 36 0 119 1;
#X connect 39 0 120 1;
#X connect 40 0 121 1;
#X connect 43 0 122 1;
#X connect 44 0 123 1;
#X connect 47 0 124 1;
#X connect 48 0 125 1;
#X connect 51 0 126 1;
#X connect 52 0 127 1;
#X connect 55 0 128 1;
#X connect 56 0 129 1;
#X connect 59 0 130 1;
#X connect 60 0 131 1;
#X connect 63 0 132 1;
#X connect 64 0 133 1;
#X connect 67 0 134 1;
#X connect 68 0 135 1;
#X connect 71 0 136 1;
#X connect 72 0 137 1;
#X connect 90 0 138 0;
#X connect 91 0 139 0;
#X connect 92 0 140 0;
#X connect 93 0 141 0;
#X connect 94 0 142 0;
#X connect 95 0 143 0;
#X connect 96 0 144 0;
#X connect 97 0 145 0;
#X connect 98 0 146 0;
#X connect 99 0 147 0;
#X connect 100 0 148 0;
#X connect 101 0 149 0;
#X connect 102 0 150 0;
#X connect 103 0 151 0;
#X connect 104 0 152 0;
#X connect 105 0 153 0;
#X connect 155 0 156 0;
#X connect 154 0 156 1;
#X connect 156 0 157 0;
#X connect 138 1 107 0;
#X connect 107 0 154 0;
#X connect 138 0 155 0;
#X connect 139 1 109 0;
#X connect 109 0 154 0;
#X connect 139 0 155 0;
#X connect 140 1 111 0;
#X connect 111 0 154 0;
#X connect 140 0 155 0;
#X connect 141 1 113 0;
#X connect 113 0 154 0;
#X connect 141 0 155 0;
#X connect 142 1 115 0;
#X connect 115 0 154 0;
#X connect 142 0 155 0;
#X connect 143 1 117 0;
#X connect 117 0 154 0;
#X connect 143 0 155 0;
#X connect 144 1 119 0;
#X connect 119 0 154 0;
#X connect 144 0 155 0;
#X connect 145 1 121 0;
#X connect 121 0 154 0;
#X connect 145 0 155 0;
#X connect 146 1 123 0;
#X connect 123 0 154 0;
#X connect 146 0 155 0;
#X connect 147 1 125 0;
#X connect 125 0 154 0;
#X connect 147 0 155 0;
#X connect 148 1 127 0;
#X connect 127 0 154 0;
#X connect 148 0 155 0;
#X connect 149 1 129 0;
#X connect 129 0 154 0;
#X connect 149 0 155 0;
#X connect 150 1 131 0;
#X connect 131 0 154 0;
#X connect 150 0 155 0;
#X connect 151 1 133 0;
#X connect 133 0 154 0;
#X connect 151 0 155 0;
#X connect 152 1 135 0;
#X connect 135 0 154 0;
#X connect 152 0 155 0;
#X connect 153 1 137 0;
#X connect 137 0 154 0;
#X connect 153 0 155 0;
#X connect 88 0 158 0;
#X connect 88 0 159 0;
#X connect 88 0 160 0;
#X connect 157 0 163 0;
#X connect 163 1 158 0;
#X connect 158 0 161 0;
#X connect 161 0 106 0;
#X connect 106 0 162 0;
#X connect 161 1 108 0;
#X connect 108 0 162 0;
#X connect 161 2 110 0;
#X connect 110 0 162 0;
#X connect 161 3 112 0;
#X connect 112 0 162 0;
#X connect 161 4 114 0;
#X connect 114 0 162 0;
#X connect 161 5 116 0;
#X connect 116 0 162 0;
#X connect 161 6 118 0;
#X connect 118 0 162 0;
#X connect 161 7 120 0;
#X connect 120 0 162 0;
#X connect 161 8 122 0;
#X connect 122 0 162 0;
#X connect 161 9 124 0;
#X connect 124 0 162 0;
#X connect 161 10 126 0;
#X connect 126 0 162 0;
#X connect 161 11 128 0;
#X connect 128 0 162 0;
#X connect 161 12 130 0;
#X connect 130 0 162 0;
#X connect 161 13 132 0;
#X connect 132 0 162 0;
#X connect 161 14 134 0;
#X connect 134 0 162 0;
#X connect 161 15 136 0;
#X connect 136 0 162 0;
#X connect 163 0 164 0;
#X connect 164 1 160 0;
#X connect 160 0 166 0;
#X connect 166 0 167 1;
#X connect 76 0 168 1;
#X connect 77 0 169 1;
#X connect 164 1 170 0;
#X connect 170 1 168 0;
#X connect 168 0 171 0;
#X connect 170 0 169 0;
#X connect 169 0 171 1;
#X connect 171 0 167 0;
#X connect 167 0 165 1;
#X connect 164 0 165 0;
#X connect 164 1 159 0;
#X connect 159 0 174 0;
#X connect 162 0 173 0;
#X connect 165 0 172 0;
#X connect 4 0 175 0;
#X connect 175 0 176 0;
#X connect 4 0 177 1;
#X connect 176 0 177 0;
#X connect 177 0 178 0;
#X connect 78 0 178 1;
#X connect 178 0 10 0;
#X connect 177 0 179 0;
#X connect 78 0 179 1;
#X connect 179 0 14 0;
#X connect 177 0 180 0;
#X connect 78 0 180 1;
#X connect 180 0 18 0;
#X connect 177 0 181 0;
#X connect 78 0 181 1;
#X connect 181 0 22 0;
#X connect 177 0 182 0;
#X connect 78 0 182 1;
#X connect 182 0 26 0;
#X connect 177 0 183 0;
#X connect 78 0 183 1;
#X connect 183 0 30 0;
#X connect 177 0 184 0;
#X connect 78 0 184 1;
#X connect 184 0 34 0;
#X connect 177 0 185 0;
#X connect 78 0 185 1;
#X connect 185 0 38 0;
#X connect 177 0 186 0;
#X connect 78 0 186 1;
#X connect 186 0 42 0;
#X connect 177 0 187 0;
#X connect 78 0 187 1;
#X connect 187 0 46 0;
#X connect 177 0 188 0;
#X connect 78 0 188 1;
#X connect 188 0 50 0;
#X connect 177 0 189 0;
#X connect 78 0 189 1;
#X connect 189 0 54 0;
#X connect 177 0 190 0;
#X connect 78 0 190 1;
#X connect 190 0 58 0;
#X connect 177 0 191 0;
#X connect 78 0 191 1;
#X connect 191 0 62 0;
#X connect 177 0 192 0;
#X connect 78 0 192 1;
#X connect 192 0 66 0;
#X connect 177 0 193 0;
#X connect 78 0 193 1;
#X connect 193 0 70 0;
[gen_seq.py] Objects=194  Connections=262
[gen_seq.py] All indices valid.

