#N canvas 0 0 700 560 12;
#X obj 10 20 inlet;
#X obj 120 20 inlet;
#X obj 450 20 inlet;
#X obj 450 50 f 1;
#X obj 10 80 f 0;
#X obj 10 110 + 1;
#X obj 80 110 >= 1;
#X obj 80 140 sel 1;
#X obj 80 170 t b b;
#X msg 150 170 0;
#X obj 250 170 f 0;
#X obj 250 200 t f f f;
#X obj 250 230 + 1;
#X obj 250 260 mod 8;
#X obj 350 200 select 0 1 2 3 4 5 6 7;
#X obj 20 360 toggle;
#X obj 55 360 toggle;
#X obj 90 360 toggle;
#X obj 125 360 toggle;
#X obj 160 360 toggle;
#X obj 195 360 toggle;
#X obj 230 360 toggle;
#X obj 265 360 toggle;
#X obj 20 400 spigot;
#X obj 55 400 spigot;
#X obj 90 400 spigot;
#X obj 125 400 spigot;
#X obj 160 400 spigot;
#X obj 195 400 spigot;
#X obj 230 400 spigot;
#X obj 265 400 spigot;
#X obj 20 450 outlet;
#X obj 500 200 outlet;
#X obj 120 50 t b b;
#X msg 120 80 0;
#X msg 185 80 0;
#X connect 0 0 4 0;
#X connect 1 0 33 0;
#X connect 2 0 3 0;
#X connect 3 0 6 1;
#X connect 4 0 5 0;
#X connect 5 0 4 1;
#X connect 5 0 6 0;
#X connect 6 0 7 0;
#X connect 7 0 8 0;
#X connect 8 1 10 0;
#X connect 8 0 9 0;
#X connect 9 0 4 1;
#X connect 10 0 11 0;
#X connect 11 2 32 0;
#X connect 11 1 14 0;
#X connect 11 0 12 0;
#X connect 12 0 13 0;
#X connect 13 0 10 1;
#X connect 14 0 23 0;
#X connect 14 1 24 0;
#X connect 14 2 25 0;
#X connect 14 3 26 0;
#X connect 14 4 27 0;
#X connect 14 5 28 0;
#X connect 14 6 29 0;
#X connect 14 7 30 0;
#X connect 15 0 23 1;
#X connect 16 0 24 1;
#X connect 17 0 25 1;
#X connect 18 0 26 1;
#X connect 19 0 27 1;
#X connect 20 0 28 1;
#X connect 21 0 29 1;
#X connect 22 0 30 1;
#X connect 23 0 31 0;
#X connect 24 0 31 0;
#X connect 25 0 31 0;
#X connect 26 0 31 0;
#X connect 27 0 31 0;
#X connect 28 0 31 0;
#X connect 29 0 31 0;
#X connect 30 0 31 0;
#X connect 33 1 34 0;
#X connect 33 0 35 0;
#X connect 34 0 4 1;
#X connect 35 0 10 1;
