#N canvas 50 50 1100 800 10;
#X text 10 10 --- VCO 1 ---;
#X text 210 10 --- VCO 2 ---;
#X text 410 10 --- SUBOSCS ---;
#X text 640 10 --- VCF + LFO ---;
#X text 800 10 --- CLOCK + FX ---;
#X text 10 390 --- SEQUENCERS ---;
#X text 800 25 TEMPO BPM;
#X floatatom 800 40 5 30 240 tempo 20 8;
#X obj 800 65 expr 60000 / $f1;
#X obj 800 90 tgl 20 0 empty empty CLOCK 20 8 0 10 -4 -4 -262144 0 0;
#X obj 800 115 metro 500;
#X text 10 25 FREQ;
#X floatatom 10 40 5 20 2000 v1freq 20 8;
#X text 10 58 WAVE 0-3;
#X floatatom 60 58 5 0 3 - 20 8;
#X text 10 75 ATK;
#X floatatom 10 90 5 0 1 - 20 8;
#X text 60 75 DEC;
#X floatatom 60 90 5 0 1 - 20 8;
#X text 10 108 VCF CUT;
#X floatatom 10 123 5 80 8000 v1cut 20 8;
#X text 60 108 VCF RES;
#X floatatom 60 123 5 0 10 - 20 8;
#X text 10 140 ROUTE (0=S1 1=S2);
#X obj 10 155 tgl 20 0 empty empty R1 20 8 0 10 -4 -4 -262144 0 0;
#X text 210 25 FREQ;
#X floatatom 210 40 5 20 2000 v2freq 20 8;
#X text 210 58 WAVE 0-3;
#X floatatom 260 58 5 0 3 - 20 8;
#X text 210 75 ATK;
#X floatatom 210 90 5 0 1 - 20 8;
#X text 260 75 DEC;
#X floatatom 260 90 5 0 1 - 20 8;
#X text 210 108 VCF CUT;
#X floatatom 210 123 5 80 8000 v2cut 20 8;
#X text 260 108 VCF RES;
#X floatatom 260 123 5 0 10 - 20 8;
#X text 210 140 ROUTE (0=S1 1=S2);
#X obj 210 155 tgl 20 0 empty empty R2 20 8 0 10 -4 -4 -262144 0 0;
#X text 410 25 S1÷;
#X floatatom 410 40 5 1 16 - 20 8;
#X text 410 58 RT;
#X obj 410 73 tgl 15 0 empty empty empty 20 8 0 10 -4 -4 -262144 0 0;
#X text 460 25 S2÷;
#X floatatom 460 40 5 1 16 - 20 8;
#X text 460 58 RT;
#X obj 460 73 tgl 15 0 empty empty empty 20 8 0 10 -4 -4 -262144 0 0;
#X text 510 25 S3÷;
#X floatatom 510 40 5 1 16 - 20 8;
#X text 510 58 RT;
#X obj 510 73 tgl 15 0 empty empty empty 20 8 0 10 -4 -4 -262144 0 0;
#X text 560 25 S4÷;
#X floatatom 560 40 5 1 16 - 20 8;
#X text 560 58 RT;
#X obj 560 73 tgl 15 0 empty empty empty 20 8 0 10 -4 -4 -262144 0 0;
#X text 640 25 CUTOFF;
#X floatatom 640 40 5 20 2000 gcut 20 8;
#X text 640 58 RESO;
#X floatatom 640 73 5 0 10 - 20 8;
#X text 700 25 LFO RATE;
#X floatatom 700 40 5 0 10 - 20 8;
#X text 700 58 LFO AMT;
#X floatatom 700 73 5 0 200 - 20 8;
#X text 800 135 FX DRIVE;
#X floatatom 800 150 5 0 1 - 20 8;
#X text 800 168 CHO RATE;
#X floatatom 800 183 5 0 5 - 20 8;
#X text 860 168 CHO DEPTH;
#X floatatom 860 183 5 0 20 - 20 8;
#X text 920 168 CHO MIX;
#X floatatom 920 183 5 0 1 - 20 8;
#X text 800 200 DLY TIME;
#X floatatom 800 215 5 0 1 - 20 8;
#X text 860 200 DLY FDBK;
#X floatatom 860 215 5 0 0.95 - 20 8;
#X text 920 200 DLY MIX;
#X floatatom 920 215 5 0 1 - 20 8;
#X text 800 232 RVB SIZE;
#X floatatom 800 247 5 0 1 - 20 8;
#X text 860 232 RVB MIX;
#X floatatom 860 247 5 0 1 - 20 8;
#X obj 50 270 spigot;
#X obj 90 270 spigot;
#X obj 50 245 == 0;
#X obj 90 245 == 1;
#X obj 250 270 spigot;
#X obj 290 270 spigot;
#X obj 250 245 == 0;
#X obj 290 245 == 1;
#X obj 410 270 spigot;
#X obj 432 270 spigot;
#X obj 410 245 == 0;
#X obj 432 245 == 1;
#X obj 460 270 spigot;
#X obj 482 270 spigot;
#X obj 460 245 == 0;
#X obj 482 245 == 1;
#X obj 510 270 spigot;
#X obj 532 270 spigot;
#X obj 510 245 == 0;
#X obj 532 245 == 1;
#X obj 560 270 spigot;
#X obj 582 270 spigot;
#X obj 560 245 == 0;
#X obj 582 245 == 1;
#X text 10 395 SEQ1 RATE DIV;
#X floatatom 10 410 5 1 8 - 20 8;
#X text 400 395 SEQ2 RATE DIV;
#X floatatom 400 410 5 1 8 - 20 8;
#X obj 10 430 seq;
#X obj 400 430 seq;
#X obj 50 570 vco~;
#X obj 250 570 vco~;
#X obj 410 570 subosc~;
#X obj 460 570 subosc~;
#X obj 510 570 subosc~;
#X obj 560 570 subosc~;
#X obj 700 100 osc~;
#X obj 700 125 *~;
#X obj 760 100 sig~;
#X obj 640 620 vcf~;
#X obj 640 595 sig~;
#X obj 700 595 sig~;
#X obj 640 570 +~;
#X obj 440 620 +~;
#X obj 480 620 +~;
#X obj 520 620 +~;
#X obj 560 620 +~;
#X obj 600 620 +~;
#X obj 800 650 fx~;
#X obj 900 700 dac~;
#X obj 1000 300 netreceive 9000 1;
#X obj 1000 325 route vco1_freq vco1_wave vco1_atk vco1_dec vco1_cut vco1_res vco1_route vco2_freq vco2_wave vco2_atk vco2_dec vco2_cut vco2_res vco2_route sub1_div sub1_route sub2_div sub2_route sub3_div sub3_route sub4_div sub4_route gcut gres lfo_rt lfo_amt tempo seq1_div seq2_div fx_drv fx_chr fx_chd fx_chm fx_dt fx_df fx_dm fx_rs fx_rm;
#X connect 7 0 8 0;
#X connect 8 0 10 1;
#X connect 9 0 10 0;
#X connect 24 0 83 0;
#X connect 83 0 81 1;
#X connect 24 0 84 0;
#X connect 84 0 82 1;
#X connect 38 0 87 0;
#X connect 87 0 85 1;
#X connect 38 0 88 0;
#X connect 88 0 86 1;
#X connect 42 0 91 0;
#X connect 91 0 89 1;
#X connect 42 0 92 0;
#X connect 92 0 90 1;
#X connect 46 0 95 0;
#X connect 95 0 93 1;
#X connect 46 0 96 0;
#X connect 96 0 94 1;
#X connect 50 0 99 0;
#X connect 99 0 97 1;
#X connect 50 0 100 0;
#X connect 100 0 98 1;
#X connect 54 0 103 0;
#X connect 103 0 101 1;
#X connect 54 0 104 0;
#X connect 104 0 102 1;
#X connect 10 0 109 0;
#X connect 10 0 110 0;
#X connect 106 0 109 2;
#X connect 108 0 110 2;
#X connect 109 0 81 0;
#X connect 109 0 85 0;
#X connect 109 0 89 0;
#X connect 109 0 93 0;
#X connect 109 0 97 0;
#X connect 109 0 101 0;
#X connect 110 0 82 0;
#X connect 110 0 86 0;
#X connect 110 0 90 0;
#X connect 110 0 94 0;
#X connect 110 0 98 0;
#X connect 110 0 102 0;
#X connect 81 0 111 0;
#X connect 82 0 111 0;
#X connect 12 0 111 1;
#X connect 14 0 111 2;
#X connect 16 0 111 3;
#X connect 18 0 111 4;
#X connect 20 0 111 5;
#X connect 22 0 111 6;
#X connect 85 0 112 0;
#X connect 86 0 112 0;
#X connect 26 0 112 1;
#X connect 28 0 112 2;
#X connect 30 0 112 3;
#X connect 32 0 112 4;
#X connect 34 0 112 5;
#X connect 36 0 112 6;
#X connect 89 0 113 0;
#X connect 90 0 113 0;
#X connect 12 0 113 1;
#X connect 40 0 113 2;
#X connect 93 0 114 0;
#X connect 94 0 114 0;
#X connect 12 0 114 1;
#X connect 44 0 114 2;
#X connect 97 0 115 0;
#X connect 98 0 115 0;
#X connect 26 0 115 1;
#X connect 48 0 115 2;
#X connect 101 0 116 0;
#X connect 102 0 116 0;
#X connect 26 0 116 1;
#X connect 52 0 116 2;
#X connect 60 0 117 0;
#X connect 117 0 118 0;
#X connect 62 0 119 0;
#X connect 119 0 118 1;
#X connect 56 0 121 0;
#X connect 121 0 123 0;
#X connect 118 0 123 1;
#X connect 123 0 120 1;
#X connect 58 0 122 0;
#X connect 122 0 120 2;
#X connect 111 0 124 0;
#X connect 112 0 124 1;
#X connect 113 0 125 0;
#X connect 124 0 125 1;
#X connect 114 0 126 0;
#X connect 125 0 126 1;
#X connect 115 0 127 0;
#X connect 126 0 127 1;
#X connect 116 0 128 0;
#X connect 127 0 128 1;
#X connect 128 0 120 0;
#X connect 120 0 129 0;
#X connect 64 0 129 1;
#X connect 66 0 129 2;
#X connect 68 0 129 3;
#X connect 70 0 129 4;
#X connect 72 0 129 5;
#X connect 74 0 129 6;
#X connect 76 0 129 7;
#X connect 78 0 129 8;
#X connect 80 0 129 9;
#X connect 129 0 130 0;
#X connect 129 1 130 1;
#X connect 131 0 132 0;
#X connect 132 0 12 0;
#X connect 132 1 14 0;
#X connect 132 2 16 0;
#X connect 132 3 18 0;
#X connect 132 4 20 0;
#X connect 132 5 22 0;
#X connect 132 6 24 0;
#X connect 132 7 26 0;
#X connect 132 8 28 0;
#X connect 132 9 30 0;
#X connect 132 10 32 0;
#X connect 132 11 34 0;
#X connect 132 12 36 0;
#X connect 132 13 38 0;
#X connect 132 14 40 0;
#X connect 132 15 42 0;
#X connect 132 16 44 0;
#X connect 132 17 46 0;
#X connect 132 18 48 0;
#X connect 132 19 50 0;
#X connect 132 20 52 0;
#X connect 132 21 54 0;
#X connect 132 22 56 0;
#X connect 132 23 58 0;
#X connect 132 24 60 0;
#X connect 132 25 62 0;
#X connect 132 26 7 0;
#X connect 132 27 106 0;
#X connect 132 28 108 0;
#X connect 132 29 64 0;
#X connect 132 30 66 0;
#X connect 132 31 68 0;
#X connect 132 32 70 0;
#X connect 132 33 72 0;
#X connect 132 34 74 0;
#X connect 132 35 76 0;
#X connect 132 36 78 0;
#X connect 132 37 80 0;
