#N canvas 0 0 450 400 12;
#X obj 10 20 inlet;
#X obj 140 20 inlet;
#X obj 260 20 inlet;
#X obj 140 65 f 440;
#X obj 260 65 f 2;
#X obj 140 110 / ;
#X obj 140 155 phasor~;
#X obj 140 200 expr~ ($v1 > 0.5) * 2 - 1;
#X obj 60 200 vline~;
#X obj 140 245 *~;
#X obj 140 295 outlet~;
#X obj 10 65 t b b;
#X msg 10 115 0.18 8;
#X obj 10 155 delay 8;
#X msg 10 200 0 120;
#X connect 1 0 3 0;
#X connect 2 0 4 0;
#X connect 3 0 5 0;
#X connect 4 0 5 1;
#X connect 5 0 6 0;
#X connect 6 0 7 0;
#X connect 7 0 9 0;
#X connect 8 0 9 1;
#X connect 9 0 10 0;
#X connect 0 0 11 0;
#X connect 11 1 12 0;
#X connect 12 0 8 0;
#X connect 11 0 13 0;
#X connect 13 0 14 0;
#X connect 14 0 8 0;
