#N canvas 0 0 700 900 12;
#X obj 10 10 inlet;
#X obj 110 10 inlet;
#X obj 210 10 inlet;
#X obj 310 10 inlet;
#X obj 410 10 inlet;
#X obj 510 10 inlet;
#X obj 580 10 inlet;
#X obj 110 55 f 440;
#X obj 10 110 osc~;
#X obj 120 110 phasor~;
#X obj 230 110 phasor~;
#X obj 340 110 phasor~;
#X obj 120 160 expr~ (1 - abs($v1 * 2 - 1)) * 2 - 1;
#X obj 230 160 expr~ $v1 * 2 - 1;
#X obj 340 160 expr~ ($v1 > 0.5) * 2 - 1;
#X obj 210 55 f 0;
#X obj 10 220 == 0;
#X obj 120 220 == 1;
#X obj 230 220 == 2;
#X obj 340 220 == 3;
#X obj 10 270 sig~;
#X obj 120 270 sig~;
#X obj 230 270 sig~;
#X obj 340 270 sig~;
#X obj 10 320 *~;
#X obj 120 320 *~;
#X obj 230 320 *~;
#X obj 340 320 *~;
#X obj 10 370 +~;
#X obj 10 410 +~;
#X obj 10 450 +~;
#X obj 310 55 * 1000;
#X obj 410 55 * 1000;
#X obj 10 55 t b b;
#X obj 10 510 f 0.8;
#X obj 10 560 pack 0.8 10;
#X obj 160 510 delay 10;
#X obj 160 560 f 0;
#X obj 160 610 pack 0 100;
#X obj 10 660 vline~;
#X obj 10 710 *~;
#X obj 510 55 f 4000;
#X obj 580 55 f 0.5;
#X obj 510 110 sig~;
#X obj 580 110 sig~;
#X obj 10 760 vcf~;
#X obj 10 820 outlet~;
#X connect 0 0 33 0;
#X connect 1 0 7 0;
#X connect 2 0 15 0;
#X connect 3 0 31 0;
#X connect 4 0 32 0;
#X connect 5 0 41 0;
#X connect 6 0 42 0;
#X connect 7 0 8 0;
#X connect 7 0 9 0;
#X connect 7 0 10 0;
#X connect 7 0 11 0;
#X connect 9 0 12 0;
#X connect 10 0 13 0;
#X connect 11 0 14 0;
#X connect 15 0 16 0;
#X connect 15 0 17 0;
#X connect 15 0 18 0;
#X connect 15 0 19 0;
#X connect 16 0 20 0;
#X connect 17 0 21 0;
#X connect 18 0 22 0;
#X connect 19 0 23 0;
#X connect 8 0 24 0;
#X connect 20 0 24 1;
#X connect 12 0 25 0;
#X connect 21 0 25 1;
#X connect 13 0 26 0;
#X connect 22 0 26 1;
#X connect 14 0 27 0;
#X connect 23 0 27 1;
#X connect 24 0 28 0;
#X connect 25 0 28 1;
#X connect 28 0 29 0;
#X connect 26 0 29 1;
#X connect 29 0 30 0;
#X connect 27 0 30 1;
#X connect 33 0 34 0;
#X connect 33 1 36 0;
#X connect 34 0 35 0;
#X connect 35 0 39 0;
#X connect 36 0 37 0;
#X connect 37 0 38 0;
#X connect 38 0 39 0;
#X connect 31 0 36 1;
#X connect 31 0 35 1;
#X connect 32 0 38 1;
#X connect 30 0 40 0;
#X connect 39 0 40 1;
#X connect 41 0 43 0;
#X connect 42 0 44 0;
#X connect 40 0 45 0;
#X connect 43 0 45 1;
#X connect 44 0 45 2;
#X connect 45 0 46 0;
